<?xml version="1.0" encoding="UTF-8"?>
<!DOCTYPE svg PUBLIC "-//W3C//DTD SVG 1.1//EN" "http://www.w3.org/Graphics/SVG/1.1/DTD/svg11.dtd">
<svg xmlns="http://www.w3.org/2000/svg" version="1.1" width="2800px" height="1750px" style="shape-rendering:geometricPrecision; text-rendering:geometricPrecision; image-rendering:optimizeQuality; fill-rule:evenodd; clip-rule:evenodd" xmlns:xlink="http://www.w3.org/1999/xlink">
<g><path style="opacity:0.997" fill="#010002" d="M 1074.5,-0.5 C 1137.17,-0.5 1199.83,-0.5 1262.5,-0.5C 1262.5,25.8333 1262.5,52.1667 1262.5,78.5C 1226.5,78.5 1190.5,78.5 1154.5,78.5C 1154.5,104.167 1154.5,129.833 1154.5,155.5C 1190.5,155.5 1226.5,155.5 1262.5,155.5C 1262.5,181.833 1262.5,208.167 1262.5,234.5C 1199.83,234.5 1137.17,234.5 1074.5,234.5C 1074.5,156.167 1074.5,77.8333 1074.5,-0.5 Z"/></g>
<g><path style="opacity:0.992" fill="#000001" d="M 1299.5,-0.5 C 1362.17,-0.5 1424.83,-0.5 1487.5,-0.5C 1487.5,22.1667 1487.5,44.8333 1487.5,67.5C 1451.17,67.5 1414.83,67.5 1378.5,67.5C 1378.18,72.0323 1378.52,76.3656 1379.5,80.5C 1415.5,80.5 1451.5,80.5 1487.5,80.5C 1487.5,133.167 1487.5,185.833 1487.5,238.5C 1424.83,238.5 1362.17,238.5 1299.5,238.5C 1299.5,214.167 1299.5,189.833 1299.5,165.5C 1335.83,165.5 1372.17,165.5 1408.5,165.5C 1408.5,161.5 1408.5,157.5 1408.5,153.5C 1372.17,153.5 1335.83,153.5 1299.5,153.5C 1299.5,102.167 1299.5,50.8333 1299.5,-0.5 Z"/></g>
<g><path style="opacity:0.125" fill="#172f91" d="M 1523.5,-0.5 C 1523.83,-0.5 1524.17,-0.5 1524.5,-0.5C 1524.17,50.9051 1524.5,102.238 1525.5,153.5C 1523.5,102.511 1522.84,51.1775 1523.5,-0.5 Z"/></g>
<g><path style="opacity:0.992" fill="#000001" d="M 1524.5,-0.5 C 1587.17,-0.5 1649.83,-0.5 1712.5,-0.5C 1712.5,22.5 1712.5,45.5 1712.5,68.5C 1676.17,68.5 1639.83,68.5 1603.5,68.5C 1603.5,72.5 1603.5,76.5 1603.5,80.5C 1639.83,80.5 1676.17,80.5 1712.5,80.5C 1712.5,133.167 1712.5,185.833 1712.5,238.5C 1650.17,238.5 1587.83,238.5 1525.5,238.5C 1524.51,214.575 1524.18,190.575 1524.5,166.5C 1560.83,166.5 1597.17,166.5 1633.5,166.5C 1633.5,162.5 1633.5,158.5 1633.5,154.5C 1597.67,153.502 1561.67,153.168 1525.5,153.5C 1524.5,102.238 1524.17,50.9051 1524.5,-0.5 Z"/></g>
<g><path style="opacity:0.125" fill="#173091" d="M 1487.5,67.5 C 1452.24,68.4995 1416.24,68.8328 1379.5,68.5C 1379.5,72.5 1379.5,76.5 1379.5,80.5C 1378.52,76.3656 1378.18,72.0323 1378.5,67.5C 1414.83,67.5 1451.17,67.5 1487.5,67.5 Z"/></g>
<g><path style="opacity:0.125" fill="#172f91" d="M 1633.5,154.5 C 1633.5,158.5 1633.5,162.5 1633.5,166.5C 1597.17,166.5 1560.83,166.5 1524.5,166.5C 1560.33,165.502 1596.33,165.168 1632.5,165.5C 1632.19,161.629 1632.52,157.962 1633.5,154.5 Z"/></g>
<g><path style="opacity:0.125" fill="#173091" d="M 1524.5,166.5 C 1524.18,190.575 1524.51,214.575 1525.5,238.5C 1524.17,226.852 1523.5,214.852 1523.5,202.5C 1523.5,190.329 1523.83,178.329 1524.5,166.5 Z"/></g>
<g><path style="opacity:1" fill="#254ce3" d="M 783.5,341.5 C 1195.74,341.167 1607.9,341.5 2020,342.5C 1985.12,735.849 1950.29,1129.35 1915.5,1523C 1912.74,1550.04 1909.74,1577.04 1906.5,1604C 1738.07,1650.73 1569.57,1697.23 1401,1743.5C 1249.32,1701.5 1097.65,1659.5 946,1617.5C 929.791,1612.91 913.625,1608.24 897.5,1603.5C 896.719,1602.27 896.219,1600.94 896,1599.5C 878.476,1406.07 861.309,1212.57 844.5,1019C 823.852,792.188 803.518,566.355 783.5,341.5 Z"/></g>
<g><path style="opacity:1" fill="#2a65f0" d="M 1400.5,1475.5 C 1400.83,1475.5 1401.17,1475.5 1401.5,1475.5C 1507.08,1446.4 1612.58,1417.06 1718,1387.5C 1741.96,1124.65 1765.46,862.315 1788.5,600.5C 1659.5,600.5 1530.5,600.5 1401.5,600.5C 1272.5,600.5 1143.5,600.5 1014.5,600.5C 1143.67,599.5 1273,599.167 1402.5,599.5C 1402.36,548.031 1402.36,496.865 1402.5,446C 1570.83,445.333 1739.17,445.333 1907.5,446C 1904.71,468.075 1902.38,490.075 1900.5,512C 1900.62,513.268 1900.95,514.602 1901.5,516C 1900.83,518.333 1900.17,520.667 1899.5,523C 1899.83,524 1900.17,525 1900.5,526C 1899.83,528.667 1899.17,531.333 1898.5,534C 1898.83,535 1899.17,536 1899.5,537C 1898.83,539.667 1898.17,542.333 1897.5,545C 1897.5,550 1897.5,555 1897.5,560C 1896.83,562.333 1896.17,564.667 1895.5,567C 1895.5,572 1895.5,577 1895.5,582C 1894.83,584.667 1894.17,587.333 1893.5,590C 1893.83,591 1894.17,592 1894.5,593C 1893.83,595.667 1893.17,598.333 1892.5,601C 1892.5,606 1892.5,611 1892.5,616C 1891.83,618.333 1891.17,620.667 1890.5,623C 1890.83,624 1891.17,625 1891.5,626C 1890.26,636.346 1888.93,646.679 1887.5,657C 1887.36,662.578 1887.36,668.245 1887.5,674C 1886.07,679.424 1885.07,685.091 1884.5,691C 1884.83,692 1885.17,693 1885.5,694C 1884.83,696.667 1884.17,699.333 1883.5,702C 1883.83,703 1884.17,704 1884.5,705C 1883.09,715.324 1881.76,725.658 1880.5,736C 1880.83,737 1881.17,738 1881.5,739C 1880.83,741.667 1880.17,744.333 1879.5,747C 1879.83,748 1880.17,749 1880.5,750C 1879.83,752.667 1879.17,755.333 1878.5,758C 1878.83,759 1879.17,760 1879.5,761C 1878.07,771.605 1876.73,781.938 1875.5,792C 1875.83,793 1876.17,794 1876.5,795C 1875.83,798 1875.17,801 1874.5,804C 1874.44,808.272 1874.44,812.606 1874.5,817C 1873.29,830.927 1871.62,844.927 1869.5,859C 1869.83,860 1870.17,861 1870.5,862C 1869.29,875.927 1867.62,889.927 1865.5,904C 1865.83,905 1866.17,906 1866.5,907C 1865.83,909.667 1865.17,912.333 1864.5,915C 1864.83,916 1865.17,917 1865.5,918C 1864.83,920.667 1864.17,923.333 1863.5,926C 1863.83,927 1864.17,928 1864.5,929C 1863.83,931.667 1863.17,934.333 1862.5,937C 1862.83,938 1863.17,939 1863.5,940C 1861.88,944.875 1861.54,949.541 1862.5,954C 1860.99,957.339 1860.65,960.339 1861.5,963C 1860.5,969.333 1859.5,975.667 1858.5,982C 1858.43,987.272 1858.43,992.605 1858.5,998C 1857.83,1000.33 1857.17,1002.67 1856.5,1005C 1856.83,1006 1857.17,1007 1857.5,1008C 1856.17,1018 1854.83,1028 1853.5,1038C 1853.83,1039 1854.17,1040 1854.5,1041C 1853.07,1051.6 1851.73,1061.94 1850.5,1072C 1850.83,1073 1851.17,1074 1851.5,1075C 1850.83,1077.67 1850.17,1080.33 1849.5,1083C 1849.83,1084 1850.17,1085 1850.5,1086C 1849.29,1099.93 1847.62,1113.93 1845.5,1128C 1845.83,1129 1846.17,1130 1846.5,1131C 1845.09,1141.32 1843.76,1151.66 1842.5,1162C 1842.83,1163 1843.17,1164 1843.5,1165C 1842.83,1167.67 1842.17,1170.33 1841.5,1173C 1841.62,1174.27 1841.95,1175.6 1842.5,1177C 1841.83,1179.33 1841.17,1181.67 1840.5,1184C 1840.83,1185 1841.17,1186 1841.5,1187C 1840.83,1189.67 1840.17,1192.33 1839.5,1195C 1839.83,1196 1840.17,1197 1840.5,1198C 1839.83,1201 1839.17,1204 1838.5,1207C 1838.83,1207.33 1839.17,1207.67 1839.5,1208C 1838.09,1218.99 1836.76,1229.99 1835.5,1241C 1835.83,1241.33 1836.17,1241.67 1836.5,1242C 1834.83,1256.33 1833.17,1270.67 1831.5,1285C 1831.83,1286 1832.17,1287 1832.5,1288C 1831.5,1294.33 1830.5,1300.67 1829.5,1307C 1829.83,1308 1830.17,1309 1830.5,1310C 1829.07,1320.6 1827.73,1330.94 1826.5,1341C 1826.83,1342 1827.17,1343 1827.5,1344C 1826.83,1346.67 1826.17,1349.33 1825.5,1352C 1825.83,1353 1826.17,1354 1826.5,1355C 1825.83,1357.67 1825.17,1360.33 1824.5,1363C 1824.83,1364 1825.17,1365 1825.5,1366C 1824.95,1372.6 1823.95,1379.27 1822.5,1386C 1822.62,1387.27 1822.95,1388.6 1823.5,1390C 1822.83,1392.33 1822.17,1394.67 1821.5,1397C 1821.83,1398 1822.17,1399 1822.5,1400C 1821.83,1402.67 1821.17,1405.33 1820.5,1408C 1820.83,1409 1821.17,1410 1821.5,1411C 1820.83,1413.67 1820.17,1416.33 1819.5,1419C 1819.83,1420 1820.17,1421 1820.5,1422C 1819.29,1435.93 1817.62,1449.93 1815.5,1464C 1815.83,1465 1816.17,1466 1816.5,1467C 1815.95,1473.6 1814.95,1480.27 1813.5,1487C 1813.83,1487.33 1814.17,1487.67 1814.5,1488C 1813.5,1495 1812.5,1502 1811.5,1509C 1811.83,1510 1812.17,1511 1812.5,1512C 1811.83,1515 1811.17,1518 1810.5,1521C 1810.83,1521.33 1811.17,1521.67 1811.5,1522C 1675.53,1560.44 1539.69,1598.28 1404,1635.5C 1403.17,1635.33 1402.33,1635.17 1401.5,1635C 1401.83,1582.67 1402.17,1530.33 1402.5,1478C 1401.62,1477.29 1400.95,1476.46 1400.5,1475.5 Z"/></g>
<g><path style="opacity:1" fill="#eaeaeb" d="M 1014.5,600.5 C 1143.5,600.5 1272.5,600.5 1401.5,600.5C 1401.83,652.006 1401.83,703.339 1401.5,754.5C 1278.17,754.5 1154.83,754.5 1031.5,754.5C 1029.88,754.64 1028.71,753.973 1028,752.5C 1023.43,702.09 1018.93,651.424 1014.5,600.5 Z"/></g>
<g><path style="opacity:1" fill="#fefefe" d="M 1401.5,600.5 C 1530.5,600.5 1659.5,600.5 1788.5,600.5C 1765.46,862.315 1741.96,1124.65 1718,1387.5C 1612.58,1417.06 1507.08,1446.4 1401.5,1475.5C 1401.64,1421.99 1401.64,1368.66 1401.5,1315.5C 1402.79,1315.74 1403.79,1315.4 1404.5,1314.5C 1460.81,1299.18 1517.14,1283.84 1573.5,1268.5C 1580.24,1201.25 1586.57,1134.25 1592.5,1067.5C 1528.83,1067.5 1465.17,1067.5 1401.5,1067.5C 1401.78,1016.18 1401.78,964.847 1401.5,913.5C 1469.5,913.5 1537.5,913.5 1605.5,913.5C 1610.36,859.679 1615.03,806.679 1619.5,754.5C 1546.83,754.5 1474.17,754.5 1401.5,754.5C 1401.83,703.339 1401.83,652.006 1401.5,600.5 Z"/></g>
<g><path style="opacity:1" fill="#2d66f0" d="M 1031.5,754.5 C 1154.83,754.5 1278.17,754.5 1401.5,754.5C 1474.17,754.5 1546.83,754.5 1619.5,754.5C 1615.03,806.679 1610.36,859.679 1605.5,913.5C 1537.5,913.5 1469.5,913.5 1401.5,913.5C 1281.83,913.5 1162.17,913.5 1042.5,913.5C 1162,912.667 1281.67,912.167 1401.5,912C 1402.08,860.579 1402.41,809.246 1402.5,758C 1402.04,757.586 1401.71,757.086 1401.5,756.5C 1278,755.833 1154.67,755.167 1031.5,754.5 Z"/></g>
<g><path style="opacity:1" fill="#eaeaeb" d="M 1042.5,913.5 C 1162.17,913.5 1281.83,913.5 1401.5,913.5C 1401.78,964.847 1401.78,1016.18 1401.5,1067.5C 1286.5,1067.5 1171.5,1067.5 1056.5,1067.5C 1053.66,1042.02 1051.33,1016.36 1049.5,990.5C 1049.18,984.651 1048.52,978.984 1047.5,973.5C 1045.57,953.523 1043.9,933.523 1042.5,913.5 Z"/></g>
<g><path style="opacity:1" fill="#6784f0" d="M 1047.5,973.5 C 1048.52,978.984 1049.18,984.651 1049.5,990.5C 1047.79,985.097 1047.13,979.43 1047.5,973.5 Z"/></g>
<g><path style="opacity:1" fill="#2a65f0" d="M 1056.5,1067.5 C 1171.5,1067.5 1286.5,1067.5 1401.5,1067.5C 1465.17,1067.5 1528.83,1067.5 1592.5,1067.5C 1586.57,1134.25 1580.24,1201.25 1573.5,1268.5C 1517.14,1283.84 1460.81,1299.18 1404.5,1314.5C 1403.83,1314.5 1403.17,1314.5 1402.5,1314.5C 1401.62,1232.61 1401.62,1150.61 1402.5,1068.5C 1287,1068.83 1171.67,1068.5 1056.5,1067.5 Z"/></g>
<g><path style="opacity:1" fill="#8ca6f0" d="M 1063.5,1145.5 C 1089.16,1144.83 1115,1144.5 1141,1144.5C 1167.18,1144.5 1193.01,1145.17 1218.5,1146.5C 1166.91,1145.5 1115.24,1145.17 1063.5,1145.5 Z"/></g>
<g><path style="opacity:1" fill="#eaeaeb" d="M 1063.5,1145.5 C 1115.24,1145.17 1166.91,1145.5 1218.5,1146.5C 1222.17,1187.17 1225.83,1227.83 1229.5,1268.5C 1250.73,1273.72 1271.73,1279.39 1292.5,1285.5C 1294.6,1286.61 1296.93,1287.28 1299.5,1287.5C 1333.65,1296.87 1367.99,1305.87 1402.5,1314.5C 1403.17,1314.5 1403.83,1314.5 1404.5,1314.5C 1403.79,1315.4 1402.79,1315.74 1401.5,1315.5C 1401.64,1368.66 1401.64,1421.99 1401.5,1475.5C 1401.17,1475.5 1400.83,1475.5 1400.5,1475.5C 1376.24,1469.11 1352.24,1462.44 1328.5,1455.5C 1326.4,1454.39 1324.07,1453.72 1321.5,1453.5C 1285.4,1443.81 1249.4,1433.81 1213.5,1423.5C 1211.4,1422.39 1209.07,1421.72 1206.5,1421.5C 1165.97,1410.53 1125.3,1399.53 1084.5,1388.5C 1076.93,1306.58 1069.93,1225.58 1063.5,1145.5 Z"/></g>
<g><path style="opacity:1" fill="#6b87f0" d="M 1292.5,1285.5 C 1295.23,1285.17 1297.56,1285.84 1299.5,1287.5C 1296.93,1287.28 1294.6,1286.61 1292.5,1285.5 Z"/></g>
<g><path style="opacity:1" fill="#6b87f0" d="M 1206.5,1421.5 C 1209.07,1421.72 1211.4,1422.39 1213.5,1423.5C 1210.77,1423.83 1208.44,1423.16 1206.5,1421.5 Z"/></g>
<g><path style="opacity:1" fill="#6b87f0" d="M 1321.5,1453.5 C 1324.07,1453.72 1326.4,1454.39 1328.5,1455.5C 1325.77,1455.83 1323.44,1455.16 1321.5,1453.5 Z"/></g>
</svg>
