<?xml version="1.0" encoding="UTF-8"?>
<svg id="Layer_1" data-name="Layer 1" xmlns="http://www.w3.org/2000/svg" viewBox="0 0 195.44 177.5">
  <defs>
    <style>
      .cls-1 {
        fill: #231f20;
      }

      .cls-1, .cls-2 {
        stroke-width: 0px;
      }

      .cls-2 {
        fill: #4dc8ed;
      }

      .cls-3 {
        letter-spacing: 0em;
      }

      .cls-4 {
        fill: #fff;
        font-family: MyriadPro-Regular, 'Myriad Pro';
        font-size: 12px;
      }

      .cls-5 {
        letter-spacing: .01em;
      }
    </style>
  </defs>
  <rect class="cls-1" width="42.8" height="50"/>
  <path class="cls-2" d="M33.83,25.74c-.43-.15-.85-.28-1.29-.41.07-.3.14-.59.2-.88.97-4.73.34-8.54-1.84-9.8-2.09-1.2-5.5.05-8.95,3.05-.34.3-.67.6-1,.91-.22-.21-.44-.41-.66-.61-3.61-3.21-7.23-4.56-9.41-3.3-2.08,1.21-2.7,4.79-1.82,9.27.09.44.19.89.3,1.32-.51.15-1.01.3-1.48.47-4.23,1.48-6.94,3.79-6.94,6.19s2.9,4.97,7.31,6.47c.36.12.72.23,1.08.34-.12.47-.22.95-.31,1.43-.84,4.41-.18,7.9,1.9,9.1,2.15,1.24,5.75-.03,9.26-3.1.28-.25.56-.51.83-.77.35.34.71.67,1.08.99,3.4,2.93,6.76,4.11,8.83,2.9,2.15-1.24,2.84-5,1.94-9.57-.07-.36-.15-.71-.24-1.07.25-.07.5-.15.74-.23,4.59-1.52,7.57-3.98,7.57-6.49s-2.79-4.74-7.11-6.23ZM32.84,36.83c-.22.07-.44.14-.67.21-.51-1.6-1.19-3.31-2.03-5.07.8-1.72,1.45-3.4,1.95-4.99.41.12.81.24,1.19.38,3.7,1.27,5.96,3.16,5.96,4.61,0,1.55-2.44,3.55-6.4,4.87ZM31.19,40.09c.4,2.02.46,3.85.19,5.28-.24,1.28-.72,2.14-1.31,2.48-1.26.73-3.96-.22-6.86-2.72-.34-.3-.68-.6-1.01-.92,1.13-1.23,2.25-2.67,3.35-4.26,1.93-.17,3.76-.45,5.42-.84.08.32.15.64.22.97ZM14.58,47.72c-1.23.43-2.21.45-2.81.11-1.26-.73-1.79-3.54-1.07-7.3.09-.45.18-.89.29-1.33,1.64.36,3.45.62,5.39.78,1.11,1.56,2.27,2.99,3.43,4.24-.25.24-.5.47-.76.7-1.55,1.36-3.11,2.32-4.48,2.8ZM8.81,36.82c-1.95-.67-3.56-1.53-4.67-2.48-.99-.85-1.49-1.69-1.49-2.38,0-1.46,2.17-3.31,5.79-4.58.44-.15.9-.3,1.38-.43.5,1.63,1.16,3.33,1.95,5.05-.8,1.75-1.47,3.48-1.97,5.12-.33-.09-.66-.2-.99-.31ZM10.74,23.66c-.75-3.84-.25-6.74,1-7.47,1.34-.77,4.3.33,7.42,3.1.2.18.4.37.6.55-1.16,1.25-2.31,2.67-3.41,4.22-1.88.17-3.68.45-5.34.83-.1-.41-.19-.82-.27-1.23h0ZM28,27.92c-.39-.68-.8-1.34-1.22-2,1.28.16,2.5.38,3.65.64-.34,1.1-.77,2.26-1.28,3.44-.37-.7-.75-1.4-1.15-2.08ZM20.96,21.06c.79.85,1.58,1.81,2.35,2.84-1.58-.07-3.15-.07-4.73,0,.78-1.02,1.57-1.98,2.37-2.84ZM13.88,27.93c-.39.68-.77,1.37-1.13,2.07-.5-1.18-.92-2.34-1.27-3.46,1.14-.26,2.36-.46,3.63-.62-.42.66-.83,1.33-1.23,2.02h0ZM15.14,38.14c-1.31-.15-2.55-.34-3.69-.59.35-1.14.79-2.33,1.3-3.53.36.7.74,1.39,1.13,2.07.41.7.82,1.39,1.26,2.05ZM21.01,42.99c-.81-.87-1.62-1.84-2.41-2.88.77.03,1.55.05,2.34.05s1.62-.02,2.41-.05c-.78,1.06-1.57,2.03-2.35,2.89ZM29.16,33.95c.53,1.22.99,2.4,1.34,3.52-1.16.26-2.41.48-3.73.64.42-.67.83-1.35,1.23-2.04.4-.7.79-1.4,1.16-2.12ZM26.52,35.22c-.61,1.05-1.25,2.09-1.92,3.1-1.22.09-2.44.13-3.66.13-1.24,0-2.46-.04-3.62-.11-.69-1.01-1.34-2.04-1.96-3.1h0c-.61-1.05-1.18-2.13-1.71-3.22.53-1.1,1.09-2.17,1.7-3.22h0c.61-1.05,1.25-2.08,1.94-3.09,1.19-.09,2.41-.14,3.64-.14h0c1.24,0,2.46.05,3.65.14.68,1,1.32,2.03,1.93,3.08.61,1.05,1.18,2.12,1.72,3.21-.53,1.1-1.11,2.18-1.72,3.24ZM30.05,16.14c1.34.77,1.86,3.89,1.02,7.97-.05.26-.11.53-.18.8-1.66-.38-3.46-.67-5.35-.85-1.1-1.57-2.24-2.99-3.38-4.22.3-.29.61-.57.92-.84,2.95-2.57,5.71-3.58,6.97-2.86ZM20.94,28.39c1.97,0,3.57,1.6,3.57,3.57s-1.6,3.57-3.57,3.57-3.57-1.6-3.57-3.57,1.6-3.57,3.57-3.57Z"/>
  <path class="cls-2" d="M188.33,153.44c-.43-.15-.85-.28-1.29-.41.07-.3.14-.59.2-.88.97-4.73.34-8.54-1.84-9.8-2.09-1.2-5.5.05-8.95,3.05-.34.3-.67.6-1,.91-.22-.21-.44-.41-.66-.61-3.61-3.21-7.23-4.56-9.41-3.3-2.08,1.21-2.7,4.79-1.82,9.27.09.44.19.89.3,1.32-.51.15-1.01.3-1.48.47-4.23,1.48-6.94,3.79-6.94,6.19s2.9,4.97,7.31,6.47c.36.12.72.23,1.08.34-.12.47-.22.95-.31,1.43-.84,4.41-.18,7.9,1.9,9.1,2.15,1.24,5.75-.03,9.26-3.1.28-.25.56-.51.83-.77.35.34.71.67,1.08.99,3.4,2.93,6.76,4.11,8.83,2.9,2.15-1.24,2.84-5,1.94-9.57-.07-.36-.15-.71-.24-1.07.25-.07.5-.15.74-.23,4.59-1.52,7.57-3.98,7.57-6.49s-2.79-4.74-7.11-6.23ZM187.34,164.54c-.22.07-.44.14-.67.21-.51-1.6-1.19-3.31-2.03-5.07.8-1.72,1.45-3.4,1.95-4.99.41.12.81.24,1.19.38,3.7,1.27,5.96,3.16,5.96,4.61,0,1.55-2.44,3.55-6.4,4.87ZM185.69,167.79c.4,2.02.46,3.85.19,5.28-.24,1.28-.72,2.14-1.31,2.48-1.26.73-3.96-.22-6.86-2.72-.34-.3-.68-.6-1.01-.92,1.13-1.23,2.25-2.67,3.35-4.26,1.93-.17,3.76-.45,5.42-.84.08.32.15.64.22.97ZM169.08,175.43c-1.23.43-2.21.45-2.81.11-1.26-.73-1.79-3.54-1.07-7.3.09-.45.18-.89.29-1.33,1.64.36,3.45.62,5.39.78,1.11,1.56,2.27,2.99,3.43,4.24-.25.24-.5.47-.76.7-1.55,1.36-3.11,2.32-4.48,2.8ZM163.31,164.53c-1.95-.67-3.56-1.53-4.67-2.48-.99-.85-1.49-1.69-1.49-2.38,0-1.46,2.17-3.31,5.79-4.58.44-.15.9-.3,1.38-.43.5,1.63,1.16,3.33,1.95,5.05-.8,1.75-1.47,3.48-1.97,5.12-.33-.09-.66-.2-.99-.31ZM165.24,151.36c-.75-3.84-.25-6.74,1-7.47,1.34-.77,4.3.33,7.42,3.1.2.18.4.37.6.55-1.16,1.25-2.31,2.67-3.41,4.22-1.88.17-3.68.45-5.34.83-.1-.41-.19-.82-.27-1.23h0ZM182.5,155.62c-.39-.68-.8-1.34-1.22-2,1.28.16,2.5.38,3.65.64-.34,1.1-.77,2.26-1.28,3.44-.37-.7-.75-1.4-1.15-2.08ZM175.46,148.77c.79.85,1.58,1.81,2.35,2.84-1.58-.07-3.15-.07-4.73,0,.78-1.02,1.57-1.98,2.37-2.84ZM168.38,155.63c-.39.68-.77,1.37-1.13,2.07-.5-1.18-.92-2.34-1.27-3.46,1.14-.26,2.36-.46,3.63-.62-.42.66-.83,1.33-1.23,2.02h0ZM169.64,165.84c-1.31-.15-2.55-.34-3.69-.59.35-1.14.79-2.33,1.3-3.53.36.7.74,1.39,1.13,2.07.41.7.82,1.39,1.26,2.05ZM175.51,170.69c-.81-.87-1.62-1.84-2.41-2.88.77.03,1.55.05,2.34.05s1.62-.02,2.41-.05c-.78,1.06-1.57,2.03-2.35,2.89ZM183.66,161.66c.53,1.22.99,2.4,1.34,3.52-1.16.26-2.41.48-3.73.64.42-.67.83-1.35,1.23-2.04.4-.7.79-1.4,1.16-2.12ZM181.02,162.92c-.61,1.05-1.25,2.09-1.92,3.1-1.22.09-2.44.13-3.66.13-1.24,0-2.46-.04-3.62-.11-.69-1.01-1.34-2.04-1.96-3.1h0c-.61-1.05-1.18-2.13-1.71-3.22.53-1.1,1.09-2.17,1.7-3.22h0c.61-1.05,1.25-2.08,1.94-3.09,1.19-.09,2.41-.14,3.64-.14h0c1.24,0,2.46.05,3.65.14.68,1,1.32,2.03,1.93,3.08.61,1.05,1.18,2.12,1.72,3.21-.53,1.1-1.11,2.18-1.72,3.24ZM184.55,143.84c1.34.77,1.86,3.89,1.02,7.97-.05.26-.11.53-.18.8-1.66-.38-3.46-.67-5.35-.85-1.1-1.57-2.24-2.99-3.38-4.22.3-.29.61-.57.92-.84,2.95-2.57,5.71-3.58,6.97-2.86ZM175.44,156.1c1.97,0,3.57,1.6,3.57,3.57s-1.6,3.57-3.57,3.57-3.57-1.6-3.57-3.57,1.6-3.57,3.57-3.57Z"/>
  <text class="cls-4" transform="translate(.83 10.52)"><tspan class="cls-3" x="0" y="0">R</tspan><tspan x="6.5" y="0">ea</tspan><tspan class="cls-5" x="18.3" y="0">c</tspan><tspan x="23.83" y="0">t JS</tspan></text>
</svg>