<?xml version="1.0" encoding="utf-8"?>
<!-- Generator: Adobe Illustrator 28.4.1, SVG Export Plug-In . SVG Version: 6.00 Build 0)  -->
<svg version="1.1" id="Layer_1" xmlns="http://www.w3.org/2000/svg" xmlns:xlink="http://www.w3.org/1999/xlink" x="0px" y="0px"
	 viewBox="0 0 35.9 32" style="enable-background:new 0 0 35.9 32;" xml:space="preserve">
<style type="text/css">
	.st0{fill:#00D8FF;}
</style>
<path class="st0" d="M192.4,153.4c-0.4-0.1-0.9-0.3-1.3-0.4c0.1-0.3,0.1-0.6,0.2-0.9c1-4.7,0.3-8.5-1.8-9.8
	c-2.1-1.2-5.5,0.1-8.9,3.1c-0.3,0.3-0.7,0.6-1,0.9c-0.2-0.2-0.4-0.4-0.7-0.6c-3.6-3.2-7.2-4.6-9.4-3.3c-2.1,1.2-2.7,4.8-1.8,9.3
	c0.1,0.4,0.2,0.9,0.3,1.3c-0.5,0.1-1,0.3-1.5,0.5c-4.2,1.5-6.9,3.8-6.9,6.2c0,2.5,2.9,5,7.3,6.5c0.4,0.1,0.7,0.2,1.1,0.3
	c-0.1,0.5-0.2,0.9-0.3,1.4c-0.8,4.4-0.2,7.9,1.9,9.1c2.1,1.2,5.8,0,9.3-3.1c0.3-0.2,0.6-0.5,0.8-0.8c0.4,0.3,0.7,0.7,1.1,1
	c3.4,2.9,6.8,4.1,8.8,2.9c2.1-1.2,2.8-5,1.9-9.6c-0.1-0.4-0.2-0.7-0.2-1.1c0.3-0.1,0.5-0.2,0.7-0.2c4.6-1.5,7.6-4,7.6-6.5
	C199.5,157.3,196.7,154.9,192.4,153.4z M191.4,164.5c-0.2,0.1-0.4,0.1-0.7,0.2c-0.5-1.6-1.2-3.3-2-5.1c0.8-1.7,1.5-3.4,1.9-5
	c0.4,0.1,0.8,0.2,1.2,0.4c3.7,1.3,6,3.2,6,4.6C197.8,161.2,195.4,163.2,191.4,164.5z M189.8,167.8c0.4,2,0.5,3.9,0.2,5.3
	c-0.2,1.3-0.7,2.1-1.3,2.5c-1.3,0.7-4-0.2-6.9-2.7c-0.3-0.3-0.7-0.6-1-0.9c1.1-1.2,2.3-2.7,3.4-4.3c1.9-0.2,3.8-0.5,5.4-0.8
	C189.6,167.1,189.7,167.5,189.8,167.8z M173.1,175.4c-1.2,0.4-2.2,0.4-2.8,0.1c-1.3-0.7-1.8-3.5-1.1-7.3c0.1-0.4,0.2-0.9,0.3-1.3
	c1.6,0.4,3.5,0.6,5.4,0.8c1.1,1.6,2.3,3,3.4,4.2c-0.2,0.2-0.5,0.5-0.8,0.7C176.1,174,174.5,174.9,173.1,175.4z M167.4,164.5
	c-2-0.7-3.6-1.5-4.7-2.5c-1-0.8-1.5-1.7-1.5-2.4c0-1.5,2.2-3.3,5.8-4.6c0.4-0.2,0.9-0.3,1.4-0.4c0.5,1.6,1.2,3.3,1.9,5.1
	c-0.8,1.7-1.5,3.5-2,5.1C168,164.7,167.7,164.6,167.4,164.5z M169.3,151.4c-0.8-3.8-0.3-6.7,1-7.5c1.3-0.8,4.3,0.3,7.4,3.1
	c0.2,0.2,0.4,0.4,0.6,0.6c-1.2,1.2-2.3,2.7-3.4,4.2c-1.9,0.2-3.7,0.5-5.3,0.8C169.5,152.2,169.4,151.8,169.3,151.4L169.3,151.4z
	 M186.6,155.6c-0.4-0.7-0.8-1.3-1.2-2c1.3,0.2,2.5,0.4,3.6,0.6c-0.3,1.1-0.8,2.3-1.3,3.4C187.3,157,187,156.3,186.6,155.6z
	 M179.5,148.8c0.8,0.9,1.6,1.8,2.4,2.8c-1.6-0.1-3.2-0.1-4.7,0C177.9,150.6,178.7,149.6,179.5,148.8z M172.4,155.6
	c-0.4,0.7-0.8,1.4-1.1,2.1c-0.5-1.2-0.9-2.3-1.3-3.5c1.1-0.3,2.4-0.5,3.6-0.6C173.2,154.3,172.8,155,172.4,155.6L172.4,155.6z
	 M173.7,165.8c-1.3-0.1-2.5-0.3-3.7-0.6c0.4-1.1,0.8-2.3,1.3-3.5c0.4,0.7,0.7,1.4,1.1,2.1C172.8,164.5,173.3,165.2,173.7,165.8z
	 M179.6,170.7c-0.8-0.9-1.6-1.8-2.4-2.9c0.8,0,1.5,0,2.3,0c0.8,0,1.6,0,2.4-0.1C181.1,168.9,180.3,169.8,179.6,170.7z M187.7,161.7
	c0.5,1.2,1,2.4,1.3,3.5c-1.2,0.3-2.4,0.5-3.7,0.6c0.4-0.7,0.8-1.3,1.2-2C187,163.1,187.4,162.4,187.7,161.7z M185.1,162.9
	c-0.6,1.1-1.2,2.1-1.9,3.1c-1.2,0.1-2.4,0.1-3.7,0.1c-1.2,0-2.5,0-3.6-0.1c-0.7-1-1.3-2-2-3.1h0c-0.6-1.1-1.2-2.1-1.7-3.2
	c0.5-1.1,1.1-2.2,1.7-3.2l0,0c0.6-1.1,1.3-2.1,1.9-3.1c1.2-0.1,2.4-0.1,3.6-0.1h0c1.2,0,2.5,0,3.6,0.1c0.7,1,1.3,2,1.9,3.1
	c0.6,1.1,1.2,2.1,1.7,3.2C186.3,160.8,185.7,161.9,185.1,162.9z M188.6,143.8c1.3,0.8,1.9,3.9,1,8c-0.1,0.3-0.1,0.5-0.2,0.8
	c-1.7-0.4-3.5-0.7-5.3-0.8c-1.1-1.6-2.2-3-3.4-4.2c0.3-0.3,0.6-0.6,0.9-0.8C184.6,144.1,187.3,143.1,188.6,143.8z M179.5,156.1
	c2,0,3.6,1.6,3.6,3.6s-1.6,3.6-3.6,3.6s-3.6-1.6-3.6-3.6S177.5,156.1,179.5,156.1z"/>
</svg>
